<svg width="123" height="115" viewBox="0 0 123 115" fill="none" xmlns="http://www.w3.org/2000/svg">
<circle cx="57.5" cy="57.5" r="57" fill="white" stroke="black"/>
<path d="M105.341 57.5C105.341 83.8757 83.9225 105.259 57.5 105.259C31.0775 105.259 9.6593 83.8757 9.6593 57.5C9.6593 31.1242 31.0775 9.74103 57.5 9.74103C83.9225 9.74103 105.341 31.1242 105.341 57.5Z" fill="#E3A6FF" stroke="black"/>
<path d="M53.524 61.876C52.852 61.876 52.288 61.588 51.832 61.012C51.376 60.46 51.04 59.776 50.824 58.96C50.608 58.144 50.5 57.364 50.5 56.62C50.5 55.18 50.704 53.584 51.112 51.832C51.52 50.08 52.024 48.292 52.624 46.468C53.248 44.644 53.884 42.892 54.532 41.212C55.204 39.508 55.804 37.972 56.332 36.604C56.86 35.236 57.232 34.144 57.448 33.328C57.496 33.112 57.532 32.92 57.556 32.752C57.58 32.56 57.592 32.404 57.592 32.284C57.592 31.852 57.46 31.636 57.196 31.636C56.812 31.636 56.236 32.032 55.468 32.824C54.7 33.592 53.836 34.648 52.876 35.992C51.94 37.312 51.004 38.812 50.068 40.492C49.132 42.172 48.292 43.912 47.548 45.712C46.828 47.488 46.324 49.228 46.036 50.932C45.94 51.556 45.772 52.024 45.532 52.336C45.316 52.648 45.1 52.804 44.884 52.804C44.692 52.804 44.524 52.684 44.38 52.444C44.236 52.204 44.164 51.856 44.164 51.4C44.14 49.48 44.08 47.56 43.984 45.64C43.888 43.696 43.672 41.836 43.336 40.06C42.832 37.324 42.256 35.38 41.608 34.228C40.984 33.076 40.336 32.5 39.664 32.5C39.04 32.5 38.428 32.884 37.828 33.652C37.252 34.396 36.7 35.392 36.172 36.64C35.644 37.864 35.176 39.208 34.768 40.672C34.36 42.136 34.036 43.588 33.796 45.028C33.58 46.468 33.472 47.752 33.472 48.88C33.472 49.144 33.472 49.408 33.472 49.672C33.496 49.912 33.52 50.14 33.544 50.356C33.568 50.476 33.58 50.608 33.58 50.752C33.58 50.872 33.58 50.992 33.58 51.112C33.58 51.664 33.508 52.156 33.364 52.588C33.22 53.02 33.052 53.236 32.86 53.236C32.668 53.236 32.488 53.02 32.32 52.588C32.128 52.156 31.972 51.616 31.852 50.968C31.732 50.296 31.636 49.732 31.564 49.276C31.516 48.94 31.408 48.436 31.24 47.764C31.096 47.092 30.916 46.36 30.7 45.568C30.484 44.752 30.232 43.96 29.944 43.192C29.68 42.4 29.392 41.728 29.08 41.176C28.768 40.6 28.444 40.228 28.108 40.06C28.06 40.012 28.036 39.964 28.036 39.916C28.036 39.796 28.156 39.724 28.396 39.7C28.66 39.676 28.84 39.688 28.936 39.736C29.44 39.88 29.884 40.24 30.268 40.816C30.676 41.368 31.024 42.028 31.312 42.796C31.624 43.54 31.888 44.284 32.104 45.028C32.32 45.748 32.5 46.348 32.644 46.828C32.908 45.172 33.22 43.54 33.58 41.932C33.964 40.3 34.468 38.704 35.092 37.144C35.98 34.984 36.856 33.448 37.72 32.536C38.584 31.6 39.4 31.132 40.168 31.132C40.984 31.132 41.716 31.552 42.364 32.392C43.036 33.208 43.6 34.3 44.056 35.668C44.536 37.012 44.86 38.476 45.028 40.06C45.124 40.876 45.184 41.764 45.208 42.724C45.232 43.66 45.244 44.584 45.244 45.496V48.304C45.244 48.712 45.244 49.084 45.244 49.42C45.244 49.756 45.256 50.032 45.28 50.248C45.448 49.672 45.724 48.868 46.108 47.836C46.492 46.78 46.96 45.604 47.512 44.308C48.064 42.988 48.688 41.632 49.384 40.24C50.08 38.848 50.824 37.516 51.616 36.244C52.432 34.948 53.272 33.82 54.136 32.86C55.024 31.876 55.912 31.156 56.8 30.7C57.328 30.436 57.82 30.304 58.276 30.304C58.804 30.304 59.248 30.46 59.608 30.772C59.968 31.06 60.148 31.492 60.148 32.068C60.148 32.932 59.968 33.796 59.608 34.66C59.248 35.5 58.816 36.328 58.312 37.144C57.808 37.96 57.34 38.752 56.908 39.52C56.14 40.912 55.372 42.52 54.604 44.344C53.836 46.168 53.188 48.052 52.66 49.996C52.156 51.94 51.904 53.812 51.904 55.612C51.904 56.188 51.928 56.752 51.976 57.304C52.048 57.856 52.156 58.384 52.3 58.888C52.516 59.656 52.78 60.184 53.092 60.472C53.428 60.784 53.764 60.94 54.1 60.94C54.46 60.94 54.796 60.832 55.108 60.616C55.42 60.424 55.672 60.208 55.864 59.968C56.056 59.752 56.14 59.62 56.116 59.572C56.332 59.5 56.416 59.56 56.368 59.752C56.32 59.968 56.224 60.184 56.08 60.4C55.936 60.64 55.84 60.784 55.792 60.832C54.952 61.528 54.196 61.876 53.524 61.876ZM66.2343 87.104C65.6103 87.104 65.0703 86.744 64.6143 86.024C64.1583 85.328 63.8343 84.188 63.6423 82.604C63.6183 82.484 63.6063 82.34 63.6063 82.172C63.6063 81.98 63.6063 81.788 63.6063 81.596C63.6063 80.804 63.6543 79.808 63.7503 78.608C63.8463 77.384 63.9663 76.04 64.1103 74.576C64.2543 73.112 64.3863 71.612 64.5063 70.076C64.6503 68.516 64.7703 66.992 64.8663 65.504C64.9623 64.016 65.0103 62.66 65.0103 61.436C65.0103 59.924 64.9143 58.7 64.7223 57.764C64.5303 56.828 64.1823 56.36 63.6783 56.36C63.3663 56.36 63.0543 56.54 62.7423 56.9C62.4543 57.236 62.1903 57.62 61.9503 58.052C61.7343 58.46 61.5543 58.796 61.4103 59.06C61.2903 59.3 61.2183 59.336 61.1943 59.168C61.1703 59.072 61.1463 58.988 61.1223 58.916C61.1223 58.82 61.1223 58.724 61.1223 58.628C61.1223 58.172 61.2303 57.692 61.4463 57.188C61.6623 56.684 61.9623 56.264 62.3463 55.928C62.7303 55.568 63.1623 55.388 63.6423 55.388C63.7383 55.388 63.8223 55.4 63.8943 55.424C63.9663 55.424 64.0383 55.436 64.1103 55.46C65.0463 55.7 65.6823 56.468 66.0183 57.764C66.3543 59.06 66.5223 60.632 66.5223 62.48C66.5223 63.872 66.4503 65.348 66.3063 66.908C66.1863 68.468 66.0423 70.04 65.8743 71.624C65.7303 73.184 65.5863 74.672 65.4423 76.088C65.3223 77.504 65.2623 78.752 65.2623 79.832C65.2623 80.144 65.2623 80.444 65.2623 80.732C65.2863 80.996 65.3103 81.248 65.3343 81.488C65.5263 83 65.7903 84.056 66.1263 84.656C66.4623 85.28 66.8463 85.592 67.2783 85.592C67.7583 85.592 68.2503 85.328 68.7543 84.8C69.2823 84.272 69.7983 83.612 70.3023 82.82C70.8063 82.028 71.2623 81.236 71.6703 80.444C72.2223 79.412 72.7263 78.2 73.1823 76.808C73.6383 75.416 74.0463 74 74.4063 72.56C74.7903 71.12 75.0903 69.8 75.3063 68.6C75.0663 68.192 74.9223 67.772 74.8743 67.34C74.8263 66.908 74.8023 66.356 74.8023 65.684C74.8023 64.964 74.9343 64.4 75.1983 63.992C75.4623 63.584 75.7383 63.38 76.0263 63.38C76.4583 63.38 76.7463 63.74 76.8903 64.46C77.1543 65.66 77.4183 66.932 77.6823 68.276C77.9463 69.596 78.2343 70.892 78.5463 72.164C78.8823 73.436 79.2663 74.612 79.6983 75.692C80.5863 77.828 81.4023 79.364 82.1463 80.3C82.8903 81.212 83.5743 81.668 84.1983 81.668C84.8463 81.668 85.4103 81.26 85.8903 80.444C86.3943 79.604 86.8143 78.512 87.1503 77.168C87.4863 75.8 87.7383 74.324 87.9063 72.74C88.0743 71.132 88.1583 69.56 88.1583 68.024C88.1583 66.752 88.0983 65.564 87.9783 64.46C87.8823 63.356 87.7023 62.456 87.4383 61.76C87.3423 61.472 87.2703 61.172 87.2223 60.86C87.1743 60.548 87.1503 60.26 87.1503 59.996C87.1503 59.66 87.1863 59.372 87.2583 59.132C87.3543 58.892 87.4863 58.772 87.6543 58.772C87.8463 58.772 88.0383 58.916 88.2303 59.204C88.4943 59.54 88.7343 60.008 88.9503 60.608C89.1903 61.184 89.3943 61.688 89.5623 62.12C89.7543 62.6 90.0063 63.188 90.3183 63.884C90.6303 64.556 90.9543 65.18 91.2903 65.756C91.6503 66.308 91.9983 66.644 92.3343 66.764C92.3823 66.788 92.4063 66.836 92.4063 66.908C92.4063 67.052 92.2983 67.172 92.0823 67.268C91.8663 67.364 91.7103 67.4 91.6143 67.376C91.0623 67.112 90.5943 66.836 90.2103 66.548C89.8503 66.236 89.4303 65.672 88.9503 64.856C88.9743 65.288 88.9863 65.732 88.9863 66.188C88.9863 66.62 88.9863 67.052 88.9863 67.484C88.9863 68.732 88.9383 69.98 88.8423 71.228C88.7703 72.476 88.6143 73.736 88.3743 75.008C87.8463 77.768 87.1743 79.736 86.3583 80.912C85.5663 82.088 84.7263 82.676 83.8383 82.676C83.1183 82.676 82.3983 82.364 81.6783 81.74C80.9823 81.092 80.3343 80.24 79.7343 79.184C79.1343 78.128 78.6183 76.952 78.1863 75.656C77.8023 74.408 77.4783 73.268 77.2143 72.236C76.9503 71.18 76.7463 70.256 76.6023 69.464C76.2183 71.192 75.7143 72.908 75.0903 74.612C74.4903 76.316 73.8183 77.924 73.0743 79.436C72.3303 80.924 71.5503 82.244 70.7343 83.396C69.9423 84.548 69.1503 85.448 68.3583 86.096C67.5903 86.768 66.8823 87.104 66.2343 87.104Z" fill="black"/>
</svg>
