<svg width="350" height="115" viewBox="0 0 350 115" fill="none" xmlns="http://www.w3.org/2000/svg">
<circle cx="57.5" cy="57.5" r="57" fill="white" stroke="black"/>
<path d="M105.341 57.5C105.341 83.8757 83.9225 105.259 57.5 105.259C31.0775 105.259 9.6593 83.8757 9.6593 57.5C9.6593 31.1242 31.0775 9.74103 57.5 9.74103C83.9225 9.74103 105.341 31.1242 105.341 57.5Z" fill="#E3A6FF" stroke="black"/>
<path d="M53.524 61.876C52.852 61.876 52.288 61.588 51.832 61.012C51.376 60.46 51.04 59.776 50.824 58.96C50.608 58.144 50.5 57.364 50.5 56.62C50.5 55.18 50.704 53.584 51.112 51.832C51.52 50.08 52.024 48.292 52.624 46.468C53.248 44.644 53.884 42.892 54.532 41.212C55.204 39.508 55.804 37.972 56.332 36.604C56.86 35.236 57.232 34.144 57.448 33.328C57.496 33.112 57.532 32.92 57.556 32.752C57.58 32.56 57.592 32.404 57.592 32.284C57.592 31.852 57.46 31.636 57.196 31.636C56.812 31.636 56.236 32.032 55.468 32.824C54.7 33.592 53.836 34.648 52.876 35.992C51.94 37.312 51.004 38.812 50.068 40.492C49.132 42.172 48.292 43.912 47.548 45.712C46.828 47.488 46.324 49.228 46.036 50.932C45.94 51.556 45.772 52.024 45.532 52.336C45.316 52.648 45.1 52.804 44.884 52.804C44.692 52.804 44.524 52.684 44.38 52.444C44.236 52.204 44.164 51.856 44.164 51.4C44.14 49.48 44.08 47.56 43.984 45.64C43.888 43.696 43.672 41.836 43.336 40.06C42.832 37.324 42.256 35.38 41.608 34.228C40.984 33.076 40.336 32.5 39.664 32.5C39.04 32.5 38.428 32.884 37.828 33.652C37.252 34.396 36.7 35.392 36.172 36.64C35.644 37.864 35.176 39.208 34.768 40.672C34.36 42.136 34.036 43.588 33.796 45.028C33.58 46.468 33.472 47.752 33.472 48.88C33.472 49.144 33.472 49.408 33.472 49.672C33.496 49.912 33.52 50.14 33.544 50.356C33.568 50.476 33.58 50.608 33.58 50.752C33.58 50.872 33.58 50.992 33.58 51.112C33.58 51.664 33.508 52.156 33.364 52.588C33.22 53.02 33.052 53.236 32.86 53.236C32.668 53.236 32.488 53.02 32.32 52.588C32.128 52.156 31.972 51.616 31.852 50.968C31.732 50.296 31.636 49.732 31.564 49.276C31.516 48.94 31.408 48.436 31.24 47.764C31.096 47.092 30.916 46.36 30.7 45.568C30.484 44.752 30.232 43.96 29.944 43.192C29.68 42.4 29.392 41.728 29.08 41.176C28.768 40.6 28.444 40.228 28.108 40.06C28.06 40.012 28.036 39.964 28.036 39.916C28.036 39.796 28.156 39.724 28.396 39.7C28.66 39.676 28.84 39.688 28.936 39.736C29.44 39.88 29.884 40.24 30.268 40.816C30.676 41.368 31.024 42.028 31.312 42.796C31.624 43.54 31.888 44.284 32.104 45.028C32.32 45.748 32.5 46.348 32.644 46.828C32.908 45.172 33.22 43.54 33.58 41.932C33.964 40.3 34.468 38.704 35.092 37.144C35.98 34.984 36.856 33.448 37.72 32.536C38.584 31.6 39.4 31.132 40.168 31.132C40.984 31.132 41.716 31.552 42.364 32.392C43.036 33.208 43.6 34.3 44.056 35.668C44.536 37.012 44.86 38.476 45.028 40.06C45.124 40.876 45.184 41.764 45.208 42.724C45.232 43.66 45.244 44.584 45.244 45.496V48.304C45.244 48.712 45.244 49.084 45.244 49.42C45.244 49.756 45.256 50.032 45.28 50.248C45.448 49.672 45.724 48.868 46.108 47.836C46.492 46.78 46.96 45.604 47.512 44.308C48.064 42.988 48.688 41.632 49.384 40.24C50.08 38.848 50.824 37.516 51.616 36.244C52.432 34.948 53.272 33.82 54.136 32.86C55.024 31.876 55.912 31.156 56.8 30.7C57.328 30.436 57.82 30.304 58.276 30.304C58.804 30.304 59.248 30.46 59.608 30.772C59.968 31.06 60.148 31.492 60.148 32.068C60.148 32.932 59.968 33.796 59.608 34.66C59.248 35.5 58.816 36.328 58.312 37.144C57.808 37.96 57.34 38.752 56.908 39.52C56.14 40.912 55.372 42.52 54.604 44.344C53.836 46.168 53.188 48.052 52.66 49.996C52.156 51.94 51.904 53.812 51.904 55.612C51.904 56.188 51.928 56.752 51.976 57.304C52.048 57.856 52.156 58.384 52.3 58.888C52.516 59.656 52.78 60.184 53.092 60.472C53.428 60.784 53.764 60.94 54.1 60.94C54.46 60.94 54.796 60.832 55.108 60.616C55.42 60.424 55.672 60.208 55.864 59.968C56.056 59.752 56.14 59.62 56.116 59.572C56.332 59.5 56.416 59.56 56.368 59.752C56.32 59.968 56.224 60.184 56.08 60.4C55.936 60.64 55.84 60.784 55.792 60.832C54.952 61.528 54.196 61.876 53.524 61.876ZM66.2343 87.104C65.6103 87.104 65.0703 86.744 64.6143 86.024C64.1583 85.328 63.8343 84.188 63.6423 82.604C63.6183 82.484 63.6063 82.34 63.6063 82.172C63.6063 81.98 63.6063 81.788 63.6063 81.596C63.6063 80.804 63.6543 79.808 63.7503 78.608C63.8463 77.384 63.9663 76.04 64.1103 74.576C64.2543 73.112 64.3863 71.612 64.5063 70.076C64.6503 68.516 64.7703 66.992 64.8663 65.504C64.9623 64.016 65.0103 62.66 65.0103 61.436C65.0103 59.924 64.9143 58.7 64.7223 57.764C64.5303 56.828 64.1823 56.36 63.6783 56.36C63.3663 56.36 63.0543 56.54 62.7423 56.9C62.4543 57.236 62.1903 57.62 61.9503 58.052C61.7343 58.46 61.5543 58.796 61.4103 59.06C61.2903 59.3 61.2183 59.336 61.1943 59.168C61.1703 59.072 61.1463 58.988 61.1223 58.916C61.1223 58.82 61.1223 58.724 61.1223 58.628C61.1223 58.172 61.2303 57.692 61.4463 57.188C61.6623 56.684 61.9623 56.264 62.3463 55.928C62.7303 55.568 63.1623 55.388 63.6423 55.388C63.7383 55.388 63.8223 55.4 63.8943 55.424C63.9663 55.424 64.0383 55.436 64.1103 55.46C65.0463 55.7 65.6823 56.468 66.0183 57.764C66.3543 59.06 66.5223 60.632 66.5223 62.48C66.5223 63.872 66.4503 65.348 66.3063 66.908C66.1863 68.468 66.0423 70.04 65.8743 71.624C65.7303 73.184 65.5863 74.672 65.4423 76.088C65.3223 77.504 65.2623 78.752 65.2623 79.832C65.2623 80.144 65.2623 80.444 65.2623 80.732C65.2863 80.996 65.3103 81.248 65.3343 81.488C65.5263 83 65.7903 84.056 66.1263 84.656C66.4623 85.28 66.8463 85.592 67.2783 85.592C67.7583 85.592 68.2503 85.328 68.7543 84.8C69.2823 84.272 69.7983 83.612 70.3023 82.82C70.8063 82.028 71.2623 81.236 71.6703 80.444C72.2223 79.412 72.7263 78.2 73.1823 76.808C73.6383 75.416 74.0463 74 74.4063 72.56C74.7903 71.12 75.0903 69.8 75.3063 68.6C75.0663 68.192 74.9223 67.772 74.8743 67.34C74.8263 66.908 74.8023 66.356 74.8023 65.684C74.8023 64.964 74.9343 64.4 75.1983 63.992C75.4623 63.584 75.7383 63.38 76.0263 63.38C76.4583 63.38 76.7463 63.74 76.8903 64.46C77.1543 65.66 77.4183 66.932 77.6823 68.276C77.9463 69.596 78.2343 70.892 78.5463 72.164C78.8823 73.436 79.2663 74.612 79.6983 75.692C80.5863 77.828 81.4023 79.364 82.1463 80.3C82.8903 81.212 83.5743 81.668 84.1983 81.668C84.8463 81.668 85.4103 81.26 85.8903 80.444C86.3943 79.604 86.8143 78.512 87.1503 77.168C87.4863 75.8 87.7383 74.324 87.9063 72.74C88.0743 71.132 88.1583 69.56 88.1583 68.024C88.1583 66.752 88.0983 65.564 87.9783 64.46C87.8823 63.356 87.7023 62.456 87.4383 61.76C87.3423 61.472 87.2703 61.172 87.2223 60.86C87.1743 60.548 87.1503 60.26 87.1503 59.996C87.1503 59.66 87.1863 59.372 87.2583 59.132C87.3543 58.892 87.4863 58.772 87.6543 58.772C87.8463 58.772 88.0383 58.916 88.2303 59.204C88.4943 59.54 88.7343 60.008 88.9503 60.608C89.1903 61.184 89.3943 61.688 89.5623 62.12C89.7543 62.6 90.0063 63.188 90.3183 63.884C90.6303 64.556 90.9543 65.18 91.2903 65.756C91.6503 66.308 91.9983 66.644 92.3343 66.764C92.3823 66.788 92.4063 66.836 92.4063 66.908C92.4063 67.052 92.2983 67.172 92.0823 67.268C91.8663 67.364 91.7103 67.4 91.6143 67.376C91.0623 67.112 90.5943 66.836 90.2103 66.548C89.8503 66.236 89.4303 65.672 88.9503 64.856C88.9743 65.288 88.9863 65.732 88.9863 66.188C88.9863 66.62 88.9863 67.052 88.9863 67.484C88.9863 68.732 88.9383 69.98 88.8423 71.228C88.7703 72.476 88.6143 73.736 88.3743 75.008C87.8463 77.768 87.1743 79.736 86.3583 80.912C85.5663 82.088 84.7263 82.676 83.8383 82.676C83.1183 82.676 82.3983 82.364 81.6783 81.74C80.9823 81.092 80.3343 80.24 79.7343 79.184C79.1343 78.128 78.6183 76.952 78.1863 75.656C77.8023 74.408 77.4783 73.268 77.2143 72.236C76.9503 71.18 76.7463 70.256 76.6023 69.464C76.2183 71.192 75.7143 72.908 75.0903 74.612C74.4903 76.316 73.8183 77.924 73.0743 79.436C72.3303 80.924 71.5503 82.244 70.7343 83.396C69.9423 84.548 69.1503 85.448 68.3583 86.096C67.5903 86.768 66.8823 87.104 66.2343 87.104Z" fill="black"/>
<path d="M162.848 70V49.192L153.596 65.356H152.012L142.724 49.192V70H140.204V44.44H142.796L152.768 61.936L162.812 44.44H165.368V70H162.848ZM169.583 64.6C169.583 63.424 169.919 62.416 170.591 61.576C171.263 60.712 172.187 60.052 173.363 59.596C174.563 59.116 175.943 58.876 177.503 58.876C178.415 58.876 179.363 58.948 180.347 59.092C181.331 59.236 182.207 59.452 182.975 59.74V58.156C182.975 56.572 182.507 55.312 181.571 54.376C180.635 53.44 179.339 52.972 177.683 52.972C176.675 52.972 175.679 53.164 174.695 53.548C173.735 53.908 172.727 54.448 171.671 55.168L170.735 53.44C171.959 52.6 173.159 51.976 174.335 51.568C175.511 51.136 176.711 50.92 177.935 50.92C180.239 50.92 182.063 51.58 183.407 52.9C184.751 54.22 185.423 56.044 185.423 58.372V67.048C185.423 67.384 185.495 67.636 185.639 67.804C185.783 67.948 186.011 68.032 186.323 68.056V70C186.059 70.024 185.831 70.048 185.639 70.072C185.447 70.096 185.303 70.096 185.207 70.072C184.607 70.048 184.151 69.856 183.839 69.496C183.527 69.136 183.359 68.752 183.335 68.344L183.299 66.976C182.459 68.056 181.367 68.896 180.023 69.496C178.679 70.072 177.311 70.36 175.919 70.36C174.719 70.36 173.627 70.108 172.643 69.604C171.683 69.076 170.927 68.38 170.375 67.516C169.847 66.628 169.583 65.656 169.583 64.6ZM182.147 66.04C182.411 65.704 182.615 65.38 182.759 65.068C182.903 64.756 182.975 64.48 182.975 64.24V61.504C182.159 61.192 181.307 60.952 180.419 60.784C179.555 60.616 178.679 60.532 177.791 60.532C176.039 60.532 174.623 60.88 173.543 61.576C172.463 62.272 171.923 63.22 171.923 64.42C171.923 65.116 172.103 65.776 172.463 66.4C172.823 67 173.351 67.504 174.047 67.912C174.743 68.296 175.559 68.488 176.495 68.488C177.671 68.488 178.763 68.26 179.771 67.804C180.803 67.348 181.595 66.76 182.147 66.04ZM200.072 53.404C198.44 53.452 197 53.908 195.752 54.772C194.528 55.636 193.664 56.824 193.16 58.336V70H190.712V51.244H193.016V55.744C193.664 54.424 194.516 53.356 195.572 52.54C196.652 51.724 197.792 51.268 198.992 51.172C199.232 51.148 199.436 51.136 199.604 51.136C199.796 51.136 199.952 51.148 200.072 51.172V53.404ZM203.441 43.72H205.889V65.752C205.889 66.688 206.057 67.3 206.393 67.588C206.729 67.876 207.137 68.02 207.617 68.02C208.049 68.02 208.481 67.972 208.913 67.876C209.345 67.78 209.717 67.684 210.029 67.588L210.461 69.568C210.005 69.76 209.441 69.916 208.769 70.036C208.121 70.156 207.557 70.216 207.077 70.216C205.973 70.216 205.085 69.892 204.413 69.244C203.765 68.596 203.441 67.708 203.441 66.58V43.72ZM211.629 64.6C211.629 63.424 211.965 62.416 212.637 61.576C213.309 60.712 214.233 60.052 215.409 59.596C216.609 59.116 217.989 58.876 219.549 58.876C220.461 58.876 221.409 58.948 222.393 59.092C223.377 59.236 224.253 59.452 225.021 59.74V58.156C225.021 56.572 224.553 55.312 223.617 54.376C222.681 53.44 221.385 52.972 219.729 52.972C218.721 52.972 217.725 53.164 216.741 53.548C215.781 53.908 214.773 54.448 213.717 55.168L212.781 53.44C214.005 52.6 215.205 51.976 216.381 51.568C217.557 51.136 218.757 50.92 219.981 50.92C222.285 50.92 224.109 51.58 225.453 52.9C226.797 54.22 227.469 56.044 227.469 58.372V67.048C227.469 67.384 227.541 67.636 227.685 67.804C227.829 67.948 228.057 68.032 228.369 68.056V70C228.105 70.024 227.877 70.048 227.685 70.072C227.493 70.096 227.349 70.096 227.253 70.072C226.653 70.048 226.197 69.856 225.885 69.496C225.573 69.136 225.405 68.752 225.381 68.344L225.345 66.976C224.505 68.056 223.413 68.896 222.069 69.496C220.725 70.072 219.357 70.36 217.965 70.36C216.765 70.36 215.673 70.108 214.689 69.604C213.729 69.076 212.973 68.38 212.421 67.516C211.893 66.628 211.629 65.656 211.629 64.6ZM224.193 66.04C224.457 65.704 224.661 65.38 224.805 65.068C224.949 64.756 225.021 64.48 225.021 64.24V61.504C224.205 61.192 223.353 60.952 222.465 60.784C221.601 60.616 220.725 60.532 219.837 60.532C218.085 60.532 216.669 60.88 215.589 61.576C214.509 62.272 213.969 63.22 213.969 64.42C213.969 65.116 214.149 65.776 214.509 66.4C214.869 67 215.397 67.504 216.093 67.912C216.789 68.296 217.605 68.488 218.541 68.488C219.717 68.488 220.809 68.26 221.817 67.804C222.849 67.348 223.641 66.76 224.193 66.04ZM250.785 44.62H253.161L256.761 53.692L260.397 44.62H262.809L258.345 55.528L263.241 67.084L272.493 44.44H275.229L264.393 70H262.161L256.797 57.364L251.397 70H249.201L238.401 44.44H241.101L250.389 67.084L255.249 55.528L250.785 44.62ZM286.205 53.404C284.573 53.452 283.133 53.908 281.885 54.772C280.661 55.636 279.797 56.824 279.293 58.336V70H276.845V51.244H279.149V55.744C279.797 54.424 280.649 53.356 281.705 52.54C282.785 51.724 283.925 51.268 285.125 51.172C285.365 51.148 285.569 51.136 285.737 51.136C285.929 51.136 286.085 51.148 286.205 51.172V53.404ZM289.466 70V51.244H291.914V70H289.466ZM289.466 47.32V43.72H291.914V47.32H289.466ZM304.829 70.252C303.557 70.252 302.381 69.988 301.301 69.46C300.221 68.932 299.285 68.224 298.493 67.336C297.725 66.424 297.125 65.392 296.693 64.24C296.261 63.088 296.045 61.9 296.045 60.676C296.045 59.356 296.249 58.12 296.657 56.968C297.089 55.792 297.689 54.748 298.457 53.836C299.249 52.924 300.173 52.216 301.229 51.712C302.285 51.184 303.461 50.92 304.757 50.92C306.365 50.92 307.757 51.328 308.933 52.144C310.133 52.96 311.141 53.968 311.957 55.168V51.244H314.153V70.072C314.153 71.8 313.733 73.252 312.893 74.428C312.077 75.628 310.961 76.528 309.545 77.128C308.153 77.728 306.629 78.028 304.973 78.028C302.837 78.028 301.109 77.644 299.789 76.876C298.469 76.108 297.389 75.076 296.549 73.78L298.061 72.592C298.805 73.768 299.789 74.644 301.013 75.22C302.261 75.796 303.581 76.084 304.973 76.084C306.197 76.084 307.313 75.856 308.321 75.4C309.353 74.968 310.169 74.308 310.769 73.42C311.393 72.532 311.705 71.416 311.705 70.072V66.364C310.985 67.54 310.001 68.488 308.753 69.208C307.505 69.904 306.197 70.252 304.829 70.252ZM305.513 68.2C306.257 68.2 306.965 68.068 307.637 67.804C308.333 67.54 308.969 67.192 309.545 66.76C310.121 66.304 310.601 65.8 310.985 65.248C311.369 64.696 311.609 64.132 311.705 63.556V57.76C311.345 56.848 310.829 56.044 310.157 55.348C309.485 54.628 308.717 54.076 307.853 53.692C307.013 53.284 306.137 53.08 305.225 53.08C304.169 53.08 303.221 53.308 302.381 53.764C301.565 54.196 300.869 54.784 300.293 55.528C299.741 56.248 299.309 57.064 298.997 57.976C298.685 58.888 298.529 59.8 298.529 60.712C298.529 61.72 298.709 62.68 299.069 63.592C299.429 64.48 299.921 65.284 300.545 66.004C301.193 66.7 301.937 67.24 302.777 67.624C303.641 68.008 304.553 68.2 305.513 68.2ZM335.327 70H332.879V59.524C332.879 57.412 332.507 55.828 331.763 54.772C331.019 53.692 329.951 53.152 328.559 53.152C327.647 53.152 326.735 53.392 325.823 53.872C324.935 54.328 324.143 54.964 323.447 55.78C322.775 56.572 322.295 57.484 322.007 58.516V70H319.559V43.72H322.007V55.492C322.751 54.1 323.783 52.996 325.103 52.18C326.447 51.34 327.875 50.92 329.387 50.92C330.467 50.92 331.379 51.112 332.123 51.496C332.891 51.88 333.503 52.444 333.959 53.188C334.439 53.908 334.787 54.76 335.003 55.744C335.219 56.704 335.327 57.796 335.327 59.02V70ZM349.372 69.1C349.18 69.172 348.88 69.304 348.472 69.496C348.064 69.688 347.572 69.856 346.996 70C346.42 70.144 345.796 70.216 345.124 70.216C344.428 70.216 343.768 70.084 343.144 69.82C342.544 69.556 342.064 69.16 341.704 68.632C341.344 68.08 341.164 67.408 341.164 66.616V53.188H338.572V51.244H341.164V44.908H343.612V51.244H347.932V53.188H343.612V65.932C343.66 66.604 343.9 67.108 344.332 67.444C344.788 67.78 345.304 67.948 345.88 67.948C346.552 67.948 347.164 67.84 347.716 67.624C348.268 67.384 348.604 67.216 348.724 67.12L349.372 69.1Z" fill="black"/>
</svg>
